<svg width="1400" height="700" viewBox="0 0 1400 700" fill="none" xmlns="http://www.w3.org/2000/svg">
<rect width="1400" height="700" fill="url(#paint0_linear_674_7)"/>
<path d="M495.201 316.219C476.593 288.456 442.936 311.336 454.09 332.213C429.854 327.635 419.062 357.933 443.672 363.538C430.21 378.273 454.999 396.669 467.627 378.625C473.261 405.559 504.082 399.456 507.218 373.489C509.996 396.57 553.505 401.562 553.051 369.34C559.331 392.372 594.21 380.832 590.526 368.12C619.518 362.807 613.835 332.4 593.17 332.692C600.431 301.061 558.308 295.017 544.935 315.514C544.558 288.803 494.84 290.67 495.201 316.219Z" fill="white"/>
<path d="M137.228 73.0967C112.265 32.44 62.9589 63.1626 77.6819 93.5736C43.3737 85.6666 26.2602 128.268 61.0431 137.66C41.0047 157.913 75.3165 185.559 94.3532 160.54C100.859 199.276 145.165 192.323 151.115 155.464C153.765 188.543 215.539 198.134 216.722 152.149C224.371 185.357 274.775 170.88 270.243 152.539C311.896 146.607 305.517 102.916 276.026 102.157C288.18 57.455 228.443 46.4415 208.204 74.916C209.185 36.7968 138.165 36.6349 137.228 73.0967Z" fill="#F7F7F8"/>
<path d="M264.066 132.385C246.996 99.5975 207.209 120.646 216.925 144.955C190.842 136.967 175.285 168.957 201.654 178.118C185.06 192.675 210.066 215.918 226.147 197.623C229.057 227.917 263.681 224.966 270.294 196.804C270.534 222.514 317.753 233.305 321.181 197.83C325.277 223.913 365.025 215.481 362.525 201.058C395.042 198.751 392.501 164.634 369.75 162.436C381.588 128.551 336.021 116.772 318.822 137.673C321.664 108.265 266.784 104.256 264.066 132.385Z" fill="white"/>
<path d="M615.858 97.3453C604.578 64.8162 565.059 78.8132 570.713 102.532C547.762 91.6324 529.087 118.999 552.142 131.019C534.875 142.181 554.765 166.992 572.066 152.315C570.636 180.625 602.941 182.604 612.857 157.551C609.589 181.275 651.636 197.626 659.609 165.401C659.844 189.992 697.615 187.615 697.268 173.985C727.545 176.272 729.833 144.489 709.167 139.376C724.672 109.758 684.282 92.7217 665.598 109.647C672.207 82.9344 622.18 71.7939 615.858 97.3453Z" fill="white"/>
<path d="M1183.6 61.9266C1156.89 22.3993 1108.97 55.2465 1125.01 84.9853C1090.39 78.5846 1075.15 121.893 1110.31 129.757C1091.17 150.865 1126.66 176.986 1144.59 151.159C1152.78 189.574 1196.74 180.692 1201.07 143.609C1205.17 176.54 1267.3 183.424 1266.47 137.431C1275.56 170.273 1325.29 153.607 1319.96 135.482C1361.31 127.737 1353.03 84.3653 1323.54 84.896C1333.73 39.7054 1273.56 31.312 1254.59 60.6435C1253.9 22.5179 1182.94 25.4587 1183.6 61.9266Z" fill="white"/>
<path d="M752.132 140.971C720.716 105.066 677.248 143.608 696.853 171.126C661.706 169.073 651.964 213.937 687.828 217.376C671.462 240.696 709.917 262.209 724.498 234.357C737.395 271.458 779.913 257.187 779.609 219.852C787.759 252.021 850.267 251.138 843.736 205.604C856.835 237.063 904.105 214.353 896.567 197.03C936.64 184.21 923.038 142.203 893.837 146.391C898.337 100.285 837.599 99.4252 822.412 130.885C816.998 93.14 746.954 104.867 752.132 140.971Z" fill="#F7F7F8"/>
<path d="M120.126 277.2C105.207 260.149 84.5651 278.452 93.8752 291.519C77.1845 290.544 72.5583 311.849 89.5894 313.482C81.8175 324.556 100.079 334.773 107.003 321.546C113.128 339.165 133.318 332.388 133.174 314.658C137.044 329.934 166.727 329.515 163.626 307.892C169.846 322.831 192.294 312.047 188.714 303.82C207.744 297.733 201.285 277.784 187.418 279.773C189.554 257.879 160.712 257.47 153.5 272.41C150.929 254.486 117.667 260.055 120.126 277.2Z" fill="white"/>
<path d="M921.126 298.2C906.207 281.149 885.565 299.452 894.875 312.519C878.184 311.544 873.558 332.849 890.589 334.482C882.818 345.556 901.079 355.773 908.003 342.546C914.128 360.165 934.318 353.388 934.174 335.658C938.044 350.934 967.727 350.515 964.626 328.892C970.846 343.831 993.294 333.047 989.714 324.82C1008.74 318.733 1002.28 298.784 988.418 300.773C990.554 278.879 961.712 278.47 954.5 293.41C951.929 275.486 918.667 281.055 921.126 298.2Z" fill="white"/>
<path d="M1194.86 260.16C1176.4 217.526 1124.63 240.354 1134.64 271.7C1102.65 259.352 1080.29 298.065 1112.52 311.911C1090.42 328.675 1119.69 360.054 1141.49 338.556C1142.42 376.796 1186.09 376.195 1196.91 341.48C1194.91 373.735 1253.14 391.49 1260.61 347.321C1263.41 380.388 1314 373.374 1312.16 355.067C1353.13 355.086 1353 312.086 1324.67 307.293C1342.55 265.871 1286.47 247.026 1263.04 271.69C1269.23 235.075 1200.79 225.138 1194.86 260.16Z" fill="white"/>
<path d="M1091.09 106.787C1072.56 74.5499 1033.46 97.3703 1044.24 121.395C1017.69 114.459 1003.39 147.261 1030.28 155.364C1014.21 170.689 1040.32 193.002 1055.71 173.941C1059.91 204.265 1094.58 199.85 1100.05 171.269C1101.37 197.099 1149.27 205.967 1151.23 170.169C1156.44 196.212 1196.04 186.073 1192.92 171.682C1225.5 168.002 1221.52 133.82 1198.56 132.563C1209.04 98.0121 1162.75 88.0825 1146.34 109.808C1147.97 80.1337 1092.64 78.4031 1091.09 106.787Z" fill="#F7F7F8"/>
<defs>
<linearGradient id="paint0_linear_674_7" x1="464" y1="-60.5" x2="1118" y2="1018" gradientUnits="userSpaceOnUse">
<stop stop-color="#499CFF"/>
<stop offset="0.419142" stop-color="#E1F3FF"/>
<stop offset="1" stop-color="#9DF7FF"/>
</linearGradient>
</defs>
</svg>
