<!-- CONCHATUMARE!!!!! -->
<svg width="1300" height="1300" viewBox="0 0 1300 1300" fill="none" xmlns="http://www.w3.org/2000/svg">
<path d="M324.812 1019.98C328.863 1012.09 332.183 1008.69 340.933 1005.41" stroke="black" stroke-opacity="0.6" stroke-width="5" stroke-linecap="round"/>
<path d="M295.363 1015.26C305.079 995.308 313.202 986.648 334.903 978" stroke="black" stroke-opacity="0.6" stroke-width="5" stroke-linecap="round"/>
<path d="M694.933 1019.98C690.883 1012.09 687.562 1008.69 678.812 1005.41" stroke="black" stroke-opacity="0.6" stroke-width="5" stroke-linecap="round"/>
<path d="M724.383 1015.26C714.667 995.308 706.544 986.648 684.843 978" stroke="black" stroke-opacity="0.6" stroke-width="5" stroke-linecap="round"/>
<path d="M353.202 854.412C361.778 860.373 376.008 889.083 376.008 889.083C376.008 889.083 344.138 885.754 335.562 879.793C326.985 873.832 323.982 863.318 328.853 856.31C333.724 849.301 344.625 848.452 353.202 854.412Z" fill="#D7F0FE"/>
<path d="M353.202 854.412C361.778 860.373 376.008 889.083 376.008 889.083C376.008 889.083 344.138 885.754 335.562 879.793C326.985 873.832 323.982 863.318 328.853 856.31C333.724 849.301 344.625 848.452 353.202 854.412Z" stroke="#D7F0FE" stroke-width="5"/>
<path d="M353.202 854.412C361.778 860.373 376.008 889.083 376.008 889.083C376.008 889.083 344.138 885.754 335.562 879.793C326.985 873.832 323.982 863.318 328.853 856.31C333.724 849.301 344.625 848.452 353.202 854.412Z" stroke="black" stroke-opacity="0.2" stroke-width="5"/>
<path d="M681.477 880.322C672.41 886.667 638.652 890.304 638.652 890.304C638.652 890.304 653.632 859.834 662.699 853.489C671.766 847.144 683.32 848.007 688.506 855.416C693.691 862.826 690.544 873.977 681.477 880.322Z" fill="#D7F0FE"/>
<path d="M681.477 880.322C672.41 886.667 638.652 890.304 638.652 890.304C638.652 890.304 653.632 859.834 662.699 853.489C671.766 847.144 683.32 848.007 688.506 855.416C693.691 862.826 690.544 873.977 681.477 880.322Z" stroke="#D7F0FE" stroke-width="5"/>
<path d="M681.477 880.322C672.41 886.667 638.652 890.304 638.652 890.304C638.652 890.304 653.632 859.834 662.699 853.489C671.766 847.144 683.32 848.007 688.506 855.416C693.691 862.826 690.544 873.977 681.477 880.322Z" stroke="black" stroke-opacity="0.2" stroke-width="5"/>
<path d="M589.241 812.712C584.031 821.159 557.531 836.151 557.531 836.151C557.531 836.151 559.034 805.741 564.244 797.294C569.454 788.847 579.273 785.451 586.176 789.709C593.079 793.966 594.451 804.265 589.241 812.712Z" fill="#D7F0FE"/>
<path d="M589.241 812.712C584.031 821.159 557.531 836.151 557.531 836.151C557.531 836.151 559.034 805.741 564.244 797.294C569.454 788.847 579.273 785.451 586.176 789.709C593.079 793.966 594.451 804.265 589.241 812.712Z" stroke="#D7F0FE" stroke-width="5"/>
<path d="M589.241 812.712C584.031 821.159 557.531 836.151 557.531 836.151C557.531 836.151 559.034 805.741 564.244 797.294C569.454 788.847 579.273 785.451 586.176 789.709C593.079 793.966 594.451 804.265 589.241 812.712Z" stroke="black" stroke-opacity="0.2" stroke-width="5"/>
<path d="M428.466 812.712C433.676 821.159 460.176 836.151 460.176 836.151C460.176 836.151 458.673 805.741 453.463 797.294C448.253 788.847 438.434 785.451 431.531 789.709C424.629 793.966 423.256 804.265 428.466 812.712Z" fill="#D7F0FE"/>
<path d="M428.466 812.712C433.676 821.159 460.176 836.151 460.176 836.151C460.176 836.151 458.673 805.741 453.463 797.294C448.253 788.847 438.434 785.451 431.531 789.709C424.629 793.966 423.256 804.265 428.466 812.712Z" stroke="#D7F0FE" stroke-width="5"/>
<path d="M428.466 812.712C433.676 821.159 460.176 836.151 460.176 836.151C460.176 836.151 458.673 805.741 453.463 797.294C448.253 788.847 438.434 785.451 431.531 789.709C424.629 793.966 423.256 804.265 428.466 812.712Z" stroke="black" stroke-opacity="0.2" stroke-width="5"/>
<path d="M444.778 1258.57C434.645 1276.64 414.521 1284.6 399.83 1276.36C385.14 1268.11 381.446 1246.79 391.58 1228.73C401.713 1210.67 417.923 1209.68 432.614 1217.92C447.304 1226.17 454.912 1240.51 444.778 1258.57Z" fill="#504B4F"/>
<path d="M444.778 1258.57C434.645 1276.64 414.521 1284.6 399.83 1276.36C385.14 1268.11 381.446 1246.79 391.58 1228.73C401.713 1210.67 417.923 1209.68 432.614 1217.92C447.304 1226.17 454.912 1240.51 444.778 1258.57Z" stroke="#D0D3DC" stroke-width="5"/>
<path d="M444.778 1258.57C434.645 1276.64 414.521 1284.6 399.83 1276.36C385.14 1268.11 381.446 1246.79 391.58 1228.73C401.713 1210.67 417.923 1209.68 432.614 1217.92C447.304 1226.17 454.912 1240.51 444.778 1258.57Z" stroke="black" stroke-opacity="0.2" stroke-width="5"/>
<path d="M625.233 1225.35C636.927 1242.44 635.137 1264.01 621.234 1273.52C607.332 1283.03 586.582 1276.88 574.888 1259.79C563.193 1242.7 569.501 1227.73 583.403 1218.22C597.306 1208.71 613.539 1208.25 625.233 1225.35Z" fill="#504B4F"/>
<path d="M625.233 1225.35C636.927 1242.44 635.137 1264.01 621.234 1273.52C607.332 1283.03 586.582 1276.88 574.888 1259.79C563.193 1242.7 569.501 1227.73 583.403 1218.22C597.306 1208.71 613.539 1208.25 625.233 1225.35Z" stroke="#D0D3DC" stroke-width="5"/>
<path d="M625.233 1225.35C636.927 1242.44 635.137 1264.01 621.234 1273.52C607.332 1283.03 586.582 1276.88 574.888 1259.79C563.193 1242.7 569.501 1227.73 583.403 1218.22C597.306 1208.71 613.539 1208.25 625.233 1225.35Z" stroke="black" stroke-opacity="0.2" stroke-width="5"/>
<path d="M389.286 1036.44C389.286 1036.44 408.488 1047.16 421.282 1053.03C434.095 1058.9 454.782 1066.46 454.782 1066.46L401.531 1166.8L392.841 1160.87C392.841 1160.87 386.091 1155.36 382.175 1151.39C377.095 1146.25 374.628 1142.98 370.324 1137.17C365.408 1130.53 362.769 1126.67 358.869 1119.39C355.902 1113.86 352.153 1104.78 352.153 1104.78C352.153 1104.78 346.658 1089.6 344.648 1079.5C343.643 1074.45 343.184 1071.58 342.673 1066.46C341.678 1056.48 342.673 1040.78 342.673 1040.78C342.673 1040.78 344.064 1033.97 346.623 1030.51C348.378 1028.15 352.153 1025.38 352.153 1025.38C352.153 1025.38 357.083 1023.15 360.449 1023.01C364.411 1022.84 370.324 1025.38 370.324 1025.38L389.286 1036.44Z" fill="#D0D3DC"/>
<path d="M401.531 1166.8L392.841 1160.87C392.841 1160.87 386.091 1155.36 382.175 1151.39C377.095 1146.25 374.628 1142.98 370.324 1137.17C365.408 1130.53 362.769 1126.67 358.869 1119.39C355.902 1113.86 352.153 1104.78 352.153 1104.78C352.153 1104.78 346.658 1089.6 344.648 1079.5C343.643 1074.45 343.184 1071.58 342.673 1066.46C341.678 1056.48 342.673 1040.78 342.673 1040.78C342.673 1040.78 344.064 1033.97 346.623 1030.51C348.378 1028.15 352.153 1025.38 352.153 1025.38C352.153 1025.38 357.083 1023.15 360.449 1023.01C364.411 1022.84 370.324 1025.38 370.324 1025.38L389.286 1036.44C389.286 1036.44 408.488 1047.16 421.282 1053.03C434.095 1058.9 454.782 1066.46 454.782 1066.46" stroke="#D0D3DC" stroke-width="5"/>
<path d="M401.531 1166.8L392.841 1160.87C392.841 1160.87 386.091 1155.36 382.175 1151.39C377.095 1146.25 374.628 1142.98 370.324 1137.17C365.408 1130.53 362.769 1126.67 358.869 1119.39C355.902 1113.86 352.153 1104.78 352.153 1104.78C352.153 1104.78 346.658 1089.6 344.648 1079.5C343.643 1074.45 343.184 1071.58 342.673 1066.46C341.678 1056.48 342.673 1040.78 342.673 1040.78C342.673 1040.78 344.064 1033.97 346.623 1030.51C348.378 1028.15 352.153 1025.38 352.153 1025.38C352.153 1025.38 357.083 1023.15 360.449 1023.01C364.411 1022.84 370.324 1025.38 370.324 1025.38L389.286 1036.44C389.286 1036.44 408.488 1047.16 421.282 1053.03C434.095 1058.9 454.782 1066.46 454.782 1066.46" stroke="black" stroke-opacity="0.2" stroke-width="5"/>
<path d="M629.727 1033.44C629.727 1033.44 610.525 1044.16 597.73 1050.03C584.918 1055.9 564.23 1063.46 564.23 1063.46L617.482 1163.8L626.172 1157.87C626.172 1157.87 632.922 1152.36 636.838 1148.39C641.917 1143.25 644.385 1139.98 648.689 1134.17C653.605 1127.53 656.244 1123.67 660.144 1116.39C663.111 1110.86 666.86 1101.78 666.86 1101.78C666.86 1101.78 672.355 1086.6 674.365 1076.5C675.37 1071.45 675.829 1068.58 676.34 1063.46C677.335 1053.48 676.34 1037.78 676.34 1037.78C676.34 1037.78 674.949 1030.97 672.39 1027.51C670.635 1025.15 666.86 1022.38 666.86 1022.38C666.86 1022.38 661.93 1020.15 658.564 1020.01C654.602 1019.84 648.689 1022.38 648.689 1022.38L629.727 1033.44Z" fill="#D0D3DC"/>
<path d="M617.482 1163.8L626.172 1157.87C626.172 1157.87 632.922 1152.36 636.838 1148.39C641.917 1143.25 644.385 1139.98 648.689 1134.17C653.605 1127.53 656.244 1123.67 660.144 1116.39C663.111 1110.86 666.86 1101.78 666.86 1101.78C666.86 1101.78 672.355 1086.6 674.365 1076.5C675.37 1071.45 675.829 1068.58 676.34 1063.46C677.335 1053.48 676.34 1037.78 676.34 1037.78C676.34 1037.78 674.949 1030.97 672.39 1027.51C670.635 1025.15 666.86 1022.38 666.86 1022.38C666.86 1022.38 661.93 1020.15 658.564 1020.01C654.602 1019.84 648.689 1022.38 648.689 1022.38L629.727 1033.44C629.727 1033.44 610.525 1044.16 597.73 1050.03C584.918 1055.9 564.23 1063.46 564.23 1063.46" stroke="#D0D3DC" stroke-width="5"/>
<path d="M617.482 1163.8L626.172 1157.87C626.172 1157.87 632.922 1152.36 636.838 1148.39C641.917 1143.25 644.385 1139.98 648.689 1134.17C653.605 1127.53 656.244 1123.67 660.144 1116.39C663.111 1110.86 666.86 1101.78 666.86 1101.78C666.86 1101.78 672.355 1086.6 674.365 1076.5C675.37 1071.45 675.829 1068.58 676.34 1063.46C677.335 1053.48 676.34 1037.78 676.34 1037.78C676.34 1037.78 674.949 1030.97 672.39 1027.51C670.635 1025.15 666.86 1022.38 666.86 1022.38C666.86 1022.38 661.93 1020.15 658.564 1020.01C654.602 1019.84 648.689 1022.38 648.689 1022.38L629.727 1033.44C629.727 1033.44 610.525 1044.16 597.73 1050.03C584.918 1055.9 564.23 1063.46 564.23 1063.46" stroke="black" stroke-opacity="0.2" stroke-width="5"/>
<path d="M611.855 1122.29C610.028 1116.55 605.93 1108.07 605.93 1108.07C605.93 1108.07 600.151 1097.8 596.054 1091.47C590.471 1082.85 580.648 1070.14 580.648 1070.14L439.548 1070C439.548 1070 429.725 1082.7 424.142 1091.33C420.045 1097.66 414.266 1107.92 414.266 1107.92C414.266 1107.92 410.169 1116.41 408.341 1122.14C406.988 1126.39 404.786 1134.78 404.786 1134.78C404.786 1134.78 403.601 1137.87 402.416 1145.77C401.23 1153.67 401.23 1151.69 401.23 1158.88C401.23 1165.51 401.918 1168.46 402.416 1175.08C403.212 1185.66 405.576 1194.43 405.576 1194.43L408.341 1199.96C408.341 1199.96 403.61 1204.2 402.416 1207.86C401.269 1211.38 402.416 1217.34 402.416 1217.34C402.416 1217.34 404.198 1220.34 405.576 1222.08C408.416 1225.69 410.532 1227.32 414.266 1229.98C417.585 1232.35 419.608 1233.51 423.352 1235.12C428.199 1237.21 431.163 1237.94 436.388 1238.68C441.998 1239.47 445.31 1239.47 450.819 1239.47H450.819L451.399 1239.47C457.261 1239.47 467.199 1237.89 467.199 1237.89L484.185 1235.12L494.851 1233.14C494.851 1233.14 503.931 1232.07 509.73 1231.73H510.23C516.03 1232.07 525.345 1233.29 525.345 1233.29L536.011 1235.26L552.997 1238.03C552.997 1238.03 562.936 1239.61 568.798 1239.61L569.377 1239.61H569.377C574.886 1239.61 578.198 1239.61 583.809 1238.82C589.034 1238.08 591.997 1237.35 596.844 1235.26C600.588 1233.65 602.612 1232.49 605.93 1230.13C609.664 1227.47 611.78 1225.83 614.621 1222.23C615.998 1220.48 617.781 1217.49 617.781 1217.49C617.781 1217.49 618.928 1211.53 617.781 1208.01C616.586 1204.34 611.855 1200.11 611.855 1200.11L614.621 1194.58C614.621 1194.58 616.984 1185.81 617.781 1175.22C618.278 1168.61 618.966 1165.66 618.966 1159.02C618.966 1151.83 618.966 1153.81 617.781 1145.91C616.596 1138.01 615.411 1134.93 615.411 1134.93C615.411 1134.93 613.208 1126.53 611.855 1122.29Z" fill="#D0D3DC"/>
<path d="M580.648 1070.14C580.648 1070.14 590.471 1082.85 596.054 1091.47C600.151 1097.8 605.93 1108.07 605.93 1108.07C605.93 1108.07 610.028 1116.55 611.855 1122.29C613.208 1126.53 615.411 1134.93 615.411 1134.93C615.411 1134.93 616.596 1138.01 617.781 1145.91C618.966 1153.81 618.966 1151.83 618.966 1159.02C618.966 1165.66 618.278 1168.61 617.781 1175.22C616.984 1185.81 614.621 1194.58 614.621 1194.58L611.855 1200.11C611.855 1200.11 616.586 1204.34 617.781 1208.01C618.928 1211.53 617.781 1217.49 617.781 1217.49C617.781 1217.49 615.998 1220.48 614.621 1222.23C611.78 1225.83 609.664 1227.47 605.93 1230.13C602.612 1232.49 600.588 1233.65 596.844 1235.26C591.997 1237.35 589.034 1238.08 583.809 1238.82C578.198 1239.61 574.886 1239.61 569.377 1239.61L568.798 1239.61C562.936 1239.61 552.997 1238.03 552.997 1238.03L536.011 1235.26L525.345 1233.29C525.345 1233.29 516.03 1232.07 510.23 1231.73H509.73C503.931 1232.07 494.851 1233.14 494.851 1233.14L484.185 1235.12L467.199 1237.89C467.199 1237.89 457.261 1239.47 451.399 1239.47L450.819 1239.47C445.31 1239.47 441.998 1239.47 436.388 1238.68C431.163 1237.94 428.199 1237.21 423.352 1235.12C419.608 1233.51 417.585 1232.35 414.266 1229.98C410.532 1227.32 408.416 1225.69 405.576 1222.08C404.198 1220.34 402.416 1217.34 402.416 1217.34C402.416 1217.34 401.269 1211.38 402.416 1207.86C403.61 1204.2 408.341 1199.96 408.341 1199.96L405.576 1194.43C405.576 1194.43 403.212 1185.66 402.416 1175.08C401.918 1168.46 401.23 1165.51 401.23 1158.88C401.23 1151.69 401.23 1153.67 402.416 1145.77C403.601 1137.87 404.786 1134.78 404.786 1134.78C404.786 1134.78 406.988 1126.39 408.341 1122.14C410.169 1116.41 414.266 1107.92 414.266 1107.92C414.266 1107.92 420.045 1097.66 424.142 1091.33C429.725 1082.7 439.548 1070 439.548 1070" stroke="#D0D3DC" stroke-width="5"/>
<path d="M580.648 1070.14C580.648 1070.14 590.471 1082.85 596.054 1091.47C600.151 1097.8 605.93 1108.07 605.93 1108.07C605.93 1108.07 610.028 1116.55 611.855 1122.29C613.208 1126.53 615.411 1134.93 615.411 1134.93C615.411 1134.93 616.596 1138.01 617.781 1145.91C618.966 1153.81 618.966 1151.83 618.966 1159.02C618.966 1165.66 618.278 1168.61 617.781 1175.22C616.984 1185.81 614.621 1194.58 614.621 1194.58L611.855 1200.11C611.855 1200.11 616.586 1204.34 617.781 1208.01C618.928 1211.53 617.781 1217.49 617.781 1217.49C617.781 1217.49 615.998 1220.48 614.621 1222.23C611.78 1225.83 609.664 1227.47 605.93 1230.13C602.612 1232.49 600.588 1233.65 596.844 1235.26C591.997 1237.35 589.034 1238.08 583.809 1238.82C578.198 1239.61 574.886 1239.61 569.377 1239.61L568.798 1239.61C562.936 1239.61 552.997 1238.03 552.997 1238.03L536.011 1235.26L525.345 1233.29C525.345 1233.29 516.03 1232.07 510.23 1231.73H509.73C503.931 1232.07 494.851 1233.14 494.851 1233.14L484.185 1235.12L467.199 1237.89C467.199 1237.89 457.261 1239.47 451.399 1239.47L450.819 1239.47C445.31 1239.47 441.998 1239.47 436.388 1238.68C431.163 1237.94 428.199 1237.21 423.352 1235.12C419.608 1233.51 417.585 1232.35 414.266 1229.98C410.532 1227.32 408.416 1225.69 405.576 1222.08C404.198 1220.34 402.416 1217.34 402.416 1217.34C402.416 1217.34 401.269 1211.38 402.416 1207.86C403.61 1204.2 408.341 1199.96 408.341 1199.96L405.576 1194.43C405.576 1194.43 403.212 1185.66 402.416 1175.08C401.918 1168.46 401.23 1165.51 401.23 1158.88C401.23 1151.69 401.23 1153.67 402.416 1145.77C403.601 1137.87 404.786 1134.78 404.786 1134.78C404.786 1134.78 406.988 1126.39 408.341 1122.14C410.169 1116.41 414.266 1107.92 414.266 1107.92C414.266 1107.92 420.045 1097.66 424.142 1091.33C429.725 1082.7 439.548 1070 439.548 1070" stroke="black" stroke-opacity="0.2" stroke-width="5"/>
<path d="M493.509 1226.08C486.374 1226.86 474.943 1228.36 474.943 1228.36C474.943 1228.36 461.364 1226.09 455.43 1220.02C451.324 1215.83 449.505 1213.65 446.723 1208.88C443.749 1203.78 442.473 1200.73 440.679 1194.87C438.884 1189 438.769 1185.85 438.553 1179.92C438.337 1174 439.614 1165.66 439.614 1165.66C439.614 1165.66 441.047 1158.44 442.75 1154.08C445.581 1146.82 448.154 1143.03 453.199 1137.09C457.741 1131.75 460.749 1129.01 466.598 1125.14C473.648 1120.48 478.295 1118.76 486.443 1116.51C496.278 1113.81 502.259 1113.35 512.44 1113.99C520.657 1114.5 526.421 1115.04 534.196 1117.75C541.972 1120.46 546.783 1121.9 553.553 1126.44C559.181 1130.22 563.186 1133.3 567.773 1138.29C573.021 1144 574.809 1148.46 577.649 1155.67C580.055 1161.78 580.646 1167.69 581.204 1174.24C581.836 1181.64 580.987 1184.85 579.624 1190.83C578.261 1196.81 576.822 1199.39 573.499 1205.84C570.177 1212.28 569.248 1213.37 565.612 1217.19C562.274 1220.7 559.417 1222.65 555.227 1225.08C551.133 1227.46 543.923 1229.45 543.923 1229.45C543.923 1229.45 534.874 1227.68 527.876 1226.78C520.878 1225.87 517.451 1225.39 510.89 1225.08C504.11 1224.76 500.256 1225.33 493.509 1226.08Z" fill="#E6E7E9"/>
<rect x="576.23" y="1079" width="18" height="22" transform="rotate(-37.6632 576.23 1079)" fill="#D0D3DC"/>
<rect x="431.609" y="1067" width="18" height="22" transform="rotate(31.1441 431.609 1067)" fill="#D0D3DC"/>
<path d="M402.487 1037.54C402.487 1037.54 396.962 1028.67 394.105 1022.64C390.218 1014.42 388.152 1009.63 386.205 1000.75C384.755 994.148 384.39 990.318 384.148 983.561C383.859 975.513 384.192 970.935 385.453 962.981C387.147 952.289 388.789 946.609 392.762 936.538C396.752 926.428 399.638 920.504 405.776 911.534C411.568 903.07 415.607 898.784 423.174 891.861C429.931 885.679 434.074 882.505 441.889 877.731C450.361 872.557 455.503 870.154 464.87 866.867C475.287 863.212 481.482 861.927 492.448 860.654C505.003 859.197 512.294 859.103 524.812 860.849C536.778 862.518 543.445 864.484 554.666 868.96C563.464 872.469 568.285 874.877 576.301 879.923C586.21 886.16 591.43 890.384 599.678 898.694C606.202 905.267 609.735 909.204 614.823 916.942C620.817 926.059 623.63 931.712 626.991 942.091C629.469 949.746 631.026 953.828 632.34 961.766C633.613 969.457 633.743 974.262 633.669 982.058C633.608 988.568 632.962 992.221 631.747 998.617C630.532 1005.01 629.726 1008.62 627.465 1014.72C625.204 1020.83 620.22 1029.73 620.22 1029.73C620.22 1029.73 611.174 1043.96 603.988 1051.94C599.714 1056.69 589.454 1065.37 582.864 1070.79C592.818 1062.92 572.837 1079.87 567.427 1083.15C560.215 1087.53 555.428 1088.68 547.378 1091.21C539.35 1093.74 534.786 1095.62 526.383 1096.07C516.048 1096.63 511.457 1096.46 501.227 1094.89C493.734 1093.73 486.937 1090.42 479.608 1088.48C469.588 1085.82 467.306 1083.66 458.092 1078.91C452.643 1076.1 448.305 1073.77 443.017 1070.66C434.413 1065.62 429.843 1064.2 421.336 1057.16C413.683 1050.82 402.487 1037.54 402.487 1037.54Z" fill="#D0D3DC"/>
<path d="M445.258 1071.7C455.864 1077.59 462.272 1080.8 445.258 1071.7V1071.7Z" fill="#D0D3DC"/>
<path d="M580.814 1072.43C566.434 1083.95 595.909 1060.92 603.988 1051.94C611.174 1043.96 620.22 1029.73 620.22 1029.73C620.22 1029.73 625.204 1020.83 627.465 1014.72C629.726 1008.62 630.533 1005.01 631.747 998.617C632.962 992.221 633.608 988.568 633.669 982.058C633.743 974.262 633.613 969.457 632.34 961.766C631.026 953.828 629.469 949.746 626.991 942.091C623.63 931.712 620.817 926.059 614.823 916.942C609.735 909.204 606.202 905.267 599.678 898.694C591.43 890.384 586.21 886.16 576.301 879.923C568.285 874.877 563.464 872.469 554.666 868.96C543.445 864.484 536.778 862.518 524.812 860.849C512.294 859.103 505.003 859.197 492.448 860.654C481.482 861.927 475.287 863.212 464.87 866.867C455.503 870.154 450.361 872.557 441.889 877.731C434.074 882.505 429.931 885.679 423.174 891.861C415.607 898.784 411.568 903.07 405.776 911.534C399.638 920.504 396.752 926.428 392.762 936.538C388.789 946.609 387.147 952.289 385.453 962.981C384.192 970.935 383.859 975.513 384.148 983.561C384.39 990.318 384.755 994.148 386.205 1000.75C388.152 1009.63 390.218 1014.42 394.105 1022.64C396.962 1028.67 402.487 1037.54 402.487 1037.54C402.487 1037.54 413.683 1050.82 421.336 1057.16C429.843 1064.2 477.406 1088.88 444 1071.03" stroke="#D0D3DC" stroke-width="5"/>
<path d="M580.814 1072.43C566.434 1083.95 595.909 1060.92 603.988 1051.94C611.174 1043.96 620.22 1029.73 620.22 1029.73C620.22 1029.73 625.204 1020.83 627.465 1014.72C629.726 1008.62 630.533 1005.01 631.747 998.617C632.962 992.221 633.608 988.568 633.669 982.058C633.743 974.262 633.613 969.457 632.34 961.766C631.026 953.828 629.469 949.746 626.991 942.091C623.63 931.712 620.817 926.059 614.823 916.942C609.735 909.204 606.202 905.267 599.678 898.694C591.43 890.384 586.21 886.16 576.301 879.923C568.285 874.877 563.464 872.469 554.666 868.96C543.445 864.484 536.778 862.518 524.812 860.849C512.294 859.103 505.003 859.197 492.448 860.654C481.482 861.927 475.287 863.212 464.87 866.867C455.503 870.154 450.361 872.557 441.889 877.731C434.074 882.505 429.931 885.679 423.174 891.861C415.607 898.784 411.568 903.07 405.776 911.534C399.638 920.504 396.752 926.428 392.762 936.538C388.789 946.609 387.147 952.289 385.453 962.981C384.192 970.935 383.859 975.513 384.148 983.561C384.39 990.318 384.755 994.148 386.205 1000.75C388.152 1009.63 390.218 1014.42 394.105 1022.64C396.962 1028.67 402.487 1037.54 402.487 1037.54C402.487 1037.54 413.683 1050.82 421.336 1057.16C429.843 1064.2 477.406 1088.88 444 1071.03" stroke="black" stroke-opacity="0.2" stroke-width="5"/>
<path d="M418.172 1040.83C422.793 1046.93 425.858 1050.53 431.677 1055.51C437.755 1060.71 441.528 1062.63 447.536 1067.28C455.642 1071.56 459.211 1073.29 465.742 1076.13C476.609 1080.86 478.336 1080.8 487.879 1083.5C496.638 1085.98 502.092 1086.52 509.521 1086.46C518.397 1086.37 523.119 1085.68 530.32 1084.89C537.521 1084.11 547.423 1081.97 547.423 1081.97C547.423 1081.97 556.752 1079.53 563.077 1077.24C569.402 1074.95 573.468 1073.25 580.242 1068.43C586.93 1063.66 589.948 1060.66 595.5 1054.61C599.556 1050.19 601.606 1046.78 604.871 1041.75L605.007 1041.54C609.226 1035.03 611.748 1031.14 614.599 1023.44C616.743 1017.66 617.264 1014.5 618.469 1008.45C619.509 1003.23 620.045 1000.45 620.035 995.128C620.022 988.846 620.186 986.759 618.815 979.089C617.443 971.42 616.826 967.4 614.344 959.319C611.499 952.343 610.091 948.055 607.06 941.455C607.06 941.455 600.681 930.245 596.456 925.731L596.455 925.73C592.23 921.217 590.419 919.282 585.179 915.235C585.179 915.235 579.009 911.732 575.219 910.281C571.144 908.722 568.401 907.901 564.065 907.413C557.944 906.724 554.31 906.543 548.301 907.892C542.233 909.254 538.569 910.395 533.716 914.284C528.374 918.567 526.082 922.314 523 928.428C520.5 933.388 519.732 936.563 518.801 942.038C517.974 946.898 518.44 949.741 518.759 954.66C519.133 960.447 519.587 963.706 520.898 969.354C522.042 974.284 524.738 981.73 524.738 981.73C524.738 981.73 530.355 989.666 531.405 995.574C532.122 999.609 532.149 1002.06 531.308 1006.07C530.675 1009.09 530.19 1011.23 528.797 1013.99C527.512 1016.52 526.723 1017.69 524.612 1019.6C522.183 1021.79 520.715 1022.74 517.601 1023.74C514.503 1024.74 512.062 1024.98 508.82 1024.7C505.747 1024.43 503.987 1023.79 501.274 1022.32C497.067 1020.05 494.635 1018.01 492.179 1013.9C489.718 1009.79 489.051 1006.42 489.079 1001.8C489.107 997.175 489.56 994.816 490.973 989.863C492.387 984.91 495.872 977.776 495.872 977.776L496.971 963.439C496.971 963.439 496.807 957.06 495.998 951.283C495.189 945.507 494.398 944.015 492.898 939.182C491.398 934.349 488.327 930.872 484.434 926.779C481.072 923.245 478.824 921.692 474.556 919.328C470.778 917.236 467.824 915.651 463.581 914.841C459.075 913.982 456.543 913.927 451.974 914.333C445.112 914.942 441.102 916.326 434.934 919.394C428.132 922.777 424.983 926.174 420.143 932.029C415.456 937.697 412.915 940.82 409.811 947.488C406.947 953.642 404.8 959.478 402.95 966.009C401.463 971.257 400.727 974.73 399.832 980.111C398.709 986.865 399.563 988.89 399.915 995.728L399.923 995.88C400.171 1000.72 400.227 1001.79 401.999 1008.3C403.79 1014.86 405.703 1018.4 408.076 1024.87C408.076 1024.87 413.723 1034.95 418.172 1040.83Z" fill="white"/>
<path d="M489.522 999.429C489.376 1000.39 489.309 1000.96 489.439 1001.93C489.6 1003.12 490.113 1004.01 490.838 1004.97C491.605 1005.99 492.38 1006.26 493.527 1006.81C495.357 1007.69 498.617 1007.85 498.617 1007.85L500.387 1011.04C501.421 1012.24 501.26 1012.64 502.294 1013.85C503.328 1015.06 504.415 1015.95 505.819 1016.84C507.515 1017.91 508.651 1018.33 510.635 1018.62C512.279 1018.87 513.8 1018.75 515.396 1018.28C517.085 1017.79 518.415 1016.76 519.224 1015.91C520.033 1015.06 520.514 1014.7 521.433 1013.36C522.352 1012.01 522.579 1011.25 523.176 1009.79C523.705 1008.5 524.04 1006.32 524.04 1006.32C524.04 1006.32 526.071 1005.39 527.223 1004.55C528.58 1003.56 528.851 1003.32 529.803 1002.14C530.585 1001.16 531.003 999.995 531.175 998.431C531.347 996.867 531.151 996.04 530.421 994.782C529.902 993.886 528.823 992.838 528.006 992.202C527.146 991.532 525.18 990.734 525.18 990.734C525.18 990.734 524.774 988.977 524.151 987.825C523.418 986.468 522.699 985.235 521.778 983.997C520.83 982.723 520.202 982.311 518.993 981.28C517.796 980.259 517.011 979.784 515.563 979.167C514.137 978.56 513.252 978.414 511.722 978.165C510.132 977.907 509.206 977.722 507.606 977.904C505.858 978.103 504.873 978.453 503.312 979.262C501.409 980.248 500.496 981.145 499.072 982.747C497.62 984.38 497.045 985.523 496.072 987.457L496.04 987.521C494.93 989.726 493.844 993.448 493.844 993.448C493.844 993.448 492.16 994.506 491.402 995.492C490.368 996.837 489.776 997.751 489.522 999.429Z" fill="black" stroke="#504B4F"/>
<path d="M495.985 995.958C494.518 997.939 492.578 1001.06 492.578 1001.06C492.578 1001.06 497.081 1004.11 500.612 1005C503.66 1005.76 506.018 1006.4 509.156 1006.29C512.392 1006.18 513.565 1006.03 516.66 1005.09C519.109 1004.35 520.312 1003.75 522.549 1002.51C524.81 1001.26 527.452 997.921 527.452 997.921C527.452 997.921 525.208 995.872 523.11 993.519C521.529 991.747 521.397 989.698 520.037 987.565C519.093 986.084 518.276 984.345 515.579 982.543C513.837 981.38 511.183 980.689 508.882 980.739C506.582 980.79 504.569 981.381 502.682 983.242C500.796 985.103 499.758 986.77 498.593 989.731C497.428 992.692 497.602 993.775 495.985 995.958Z" fill="#FFF176"/>
<ellipse cx="559.912" cy="981.789" rx="12.6408" ry="16.9779" transform="rotate(0.713526 559.912 981.789)" fill="black" stroke="#504B4F"/>
<ellipse cx="459.37" cy="987.252" rx="12.6408" ry="16.9779" transform="rotate(0.713526 459.37 987.252)" fill="black" stroke="#504B4F"/>
<circle cx="462.604" cy="980.104" r="3.55521" transform="rotate(20.3276 462.604 980.104)" fill="white" stroke="#504B4F"/>
<path d="M442.23 964.5C448.641 958.361 452.889 956.237 462.23 956" stroke="black" stroke-opacity="0.6" stroke-width="5" stroke-linecap="round"/>
<path d="M580.23 960.5C573.82 954.361 569.572 952.237 560.23 952" stroke="black" stroke-opacity="0.6" stroke-width="5" stroke-linecap="round"/>
<circle cx="563.278" cy="974.432" r="3.55521" transform="rotate(20.3276 563.278 974.432)" fill="white" stroke="#504B4F"/>
<ellipse cx="577.084" cy="1009.75" rx="19.4325" ry="8.72917" transform="rotate(-4.14205 577.084 1009.75)" fill="#FACFE3"/>
<ellipse cx="446.769" cy="1015.58" rx="19.4325" ry="8.72917" transform="rotate(1.2902 446.769 1015.58)" fill="#FACFE3"/>
</svg>
