<svg width="667" height="1131" viewBox="0 0 667 1131" fill="none" xmlns="http://www.w3.org/2000/svg">
<path d="M169.257 1091.99C166.239 1112.48 150.283 1127.1 133.618 1124.64C116.953 1122.19 105.89 1103.59 108.908 1083.1C111.926 1062.61 126.717 1055.9 143.382 1058.36C160.047 1060.81 172.275 1071.5 169.257 1091.99Z" fill="#504B4F"/>
<path d="M169.257 1091.99C166.239 1112.48 150.283 1127.1 133.618 1124.64C116.953 1122.19 105.89 1103.59 108.908 1083.1C111.926 1062.61 126.717 1055.9 143.382 1058.36C160.047 1060.81 172.275 1071.5 169.257 1091.99Z" stroke="#D0D3DC" stroke-width="5"/>
<path d="M169.257 1091.99C166.239 1112.48 150.283 1127.1 133.618 1124.64C116.953 1122.19 105.89 1103.59 108.908 1083.1C111.926 1062.61 126.717 1055.9 143.382 1058.36C160.047 1060.81 172.275 1071.5 169.257 1091.99Z" stroke="black" stroke-opacity="0.2" stroke-width="5"/>
<path d="M308.579 1081.47C312.731 1101.76 302.719 1120.94 286.216 1124.32C269.714 1127.7 252.969 1113.99 248.817 1093.7C244.665 1073.41 256.281 1062.06 272.784 1058.68C289.286 1055.3 304.427 1061.18 308.579 1081.47Z" fill="#504B4F"/>
<path d="M308.579 1081.47C312.731 1101.76 302.719 1120.94 286.216 1124.32C269.714 1127.7 252.969 1113.99 248.817 1093.7C244.665 1073.41 256.281 1062.06 272.784 1058.68C289.286 1055.3 304.427 1061.18 308.579 1081.47Z" stroke="#D0D3DC" stroke-width="5"/>
<path d="M308.579 1081.47C312.731 1101.76 302.719 1120.94 286.216 1124.32C269.714 1127.7 252.969 1113.99 248.817 1093.7C244.665 1073.41 256.281 1062.06 272.784 1058.68C289.286 1055.3 304.427 1061.18 308.579 1081.47Z" stroke="black" stroke-opacity="0.2" stroke-width="5"/>
<path d="M205.993 1074.48C200.131 1074.48 190.587 1076.06 190.587 1076.06L175.971 1078.03C175.971 1078.03 168.466 1079.61 161.75 1080.8C155.035 1081.98 154.245 1081.59 146.344 1082.77C140.818 1083.6 138.049 1083.56 132.124 1083.96C124.544 1084.46 118.586 1083.74 111.582 1080.8C105.777 1078.36 102.516 1076.6 98.5465 1071.71C96.241 1068.87 95.4622 1066.65 94.9913 1063.02C94.5666 1059.75 96.5714 1054.72 96.5714 1054.72C96.5714 1054.72 92.7928 1050.16 91.041 1046.82C89.1345 1043.2 87.9409 1040.85 86.6958 1036.95C85.6723 1033.74 85.5505 1031.99 85.1157 1028.65C84.7374 1025.75 85.1157 1021.15 85.1157 1021.15C85.1157 1021.15 77.8445 1019.92 73.265 1018.78C65.6913 1016.89 61.5018 1015.48 54.3038 1012.46C47.9416 1009.79 43.948 1008.62 38.1078 1004.95C32.152 1001.21 28.2672 999.002 23.887 993.496C21.2184 990.142 19.7883 988.175 18.7517 984.016C17.8562 980.423 17.6481 978.069 18.7517 974.535C19.8742 970.94 23.0473 967.557 25.8621 965.054C32.9725 958.734 34.8344 958.392 41.663 953.599C49.6933 947.962 54.3959 945.714 62.2043 939.773C72.1754 932.187 87.4858 920.022 87.4858 920.022C87.4858 920.022 79.2251 913.627 74.45 908.961C67.9516 902.611 64.3484 898.831 59.4391 891.185C55.7859 885.496 54.1132 882.031 51.5386 875.779C48.4723 868.333 47.1943 863.924 45.6133 856.028C43.4878 845.412 43.0536 839.516 43.2815 828.692C43.5104 817.826 44.159 811.268 46.7984 800.725C49.2889 790.775 51.5884 785.354 56.2789 776.233C60.4671 768.089 63.2493 763.673 68.9197 756.482C75.0665 748.687 79.0537 744.647 86.6958 738.311C95.1942 731.265 100.556 727.907 110.397 722.905C121.664 717.177 128.469 714.555 140.814 711.844C152.614 709.253 159.548 708.78 171.626 709.079C181.095 709.313 186.453 709.897 195.722 711.844C207.18 714.251 213.543 716.398 224.164 721.325C232.565 725.222 237.246 727.686 244.705 733.175C253.493 739.642 258.094 743.966 264.852 752.532C269.835 758.848 272.712 762.136 276.702 769.123C280.568 775.893 282.359 780.353 284.998 787.689C287.202 793.815 287.865 797.465 288.948 803.885C290.03 810.303 290.528 813.967 290.528 820.476C290.528 826.984 288.948 837.067 288.948 837.067L320.945 820.476L339.906 809.415C339.906 809.415 345.819 806.875 349.782 807.045C353.148 807.189 358.077 809.415 358.077 809.415C358.077 809.415 361.852 812.183 363.608 814.55C366.167 818.003 367.558 824.821 367.558 824.821C367.558 824.821 368.553 840.52 367.558 850.498C367.047 855.621 366.587 858.483 365.583 863.533C363.573 873.634 358.077 888.815 358.077 888.815C358.077 888.815 354.329 897.894 351.362 903.431C347.461 910.71 344.823 914.571 339.906 921.207C335.602 927.015 333.135 930.284 328.055 935.428C324.14 939.393 317.39 944.908 317.39 944.908L308.699 950.834C308.699 950.834 312.797 959.322 314.625 965.054C315.977 969.296 318.18 977.695 318.18 977.695C318.18 977.695 319.365 980.776 320.55 988.677C321.735 996.577 321.735 994.602 321.735 1001.79C321.735 1008.43 321.048 1011.37 320.55 1017.99C319.753 1028.57 317.39 1037.34 317.39 1037.34L314.625 1042.87C314.625 1042.87 319.355 1047.11 320.55 1050.77C321.697 1054.29 320.55 1060.26 320.55 1060.26C320.55 1060.26 318.768 1063.25 317.39 1065C314.549 1068.6 312.433 1070.23 308.699 1072.9C305.381 1075.26 303.357 1076.42 299.614 1078.03C294.767 1080.12 291.803 1080.85 286.578 1081.59C280.967 1082.38 277.655 1082.38 272.146 1082.38L271.567 1082.38C265.705 1082.38 255.766 1080.8 255.766 1080.8L238.78 1078.03L228.114 1076.06C228.114 1076.06 218.508 1074.81 212.708 1074.48C210.09 1074.32 208.616 1074.48 205.993 1074.48Z" fill="#D0D3DC"/>
<path d="M85.1157 1021.15C85.1157 1021.15 84.7374 1025.75 85.1157 1028.65C85.5505 1031.99 85.6723 1033.74 86.6958 1036.95C87.9409 1040.85 89.1345 1043.2 91.041 1046.82C92.7928 1050.16 96.5714 1054.72 96.5714 1054.72C96.5714 1054.72 94.5666 1059.75 94.9913 1063.02C95.4622 1066.65 96.241 1068.87 98.5465 1071.71C102.516 1076.6 105.777 1078.36 111.582 1080.8C118.586 1083.74 124.544 1084.46 132.124 1083.96C138.049 1083.56 140.818 1083.6 146.344 1082.77C154.245 1081.59 155.035 1081.98 161.75 1080.8C168.466 1079.61 175.971 1078.03 175.971 1078.03L190.587 1076.06C190.587 1076.06 200.131 1074.48 205.993 1074.48C208.616 1074.48 210.09 1074.32 212.708 1074.48C218.508 1074.81 228.114 1076.06 228.114 1076.06L238.78 1078.03L255.766 1080.8C255.766 1080.8 265.705 1082.38 271.567 1082.38C277.429 1082.38 280.773 1082.41 286.578 1081.59C291.803 1080.85 294.767 1080.12 299.614 1078.03C303.357 1076.42 305.381 1075.26 308.699 1072.9C312.433 1070.23 314.549 1068.6 317.39 1065C318.768 1063.25 320.55 1060.26 320.55 1060.26C320.55 1060.26 321.697 1054.29 320.55 1050.77C319.355 1047.11 314.625 1042.87 314.625 1042.87L317.39 1037.34C317.39 1037.34 319.753 1028.57 320.55 1017.99C321.048 1011.37 321.735 1008.43 321.735 1001.79C321.735 994.602 321.735 996.577 320.55 988.677C319.365 980.776 318.18 977.695 318.18 977.695C318.18 977.695 315.977 969.296 314.625 965.054C312.797 959.322 308.699 950.834 308.699 950.834M85.1157 1021.15C85.1157 1021.15 77.8445 1019.92 73.265 1018.78C65.6913 1016.89 61.5018 1015.48 54.3038 1012.46C47.9416 1009.79 43.948 1008.62 38.1078 1004.95C32.152 1001.21 28.2672 999.002 23.887 993.496C21.2184 990.142 19.7883 988.175 18.7517 984.016C17.8562 980.423 17.6481 978.069 18.7517 974.535C19.8742 970.94 23.0473 967.557 25.8621 965.054C32.9725 958.734 34.8344 958.392 41.663 953.599C49.6933 947.962 54.3959 945.714 62.2043 939.773C72.1754 932.187 87.4858 920.022 87.4858 920.022M85.1157 1021.15C85.1157 1021.15 86.4257 1013.66 87.4858 1008.9C88.6992 1003.46 91.041 995.076 91.041 995.076C92.2752 991.837 92.9671 990.02 94.2012 986.781C95.4354 983.541 106.052 967.82 98.5465 978.88M87.4858 920.022C87.4858 920.022 79.2251 913.627 74.45 908.961C67.9516 902.611 64.3484 898.831 59.4391 891.185C55.7859 885.496 54.1132 882.031 51.5386 875.779C48.4723 868.333 47.1943 863.924 45.6133 856.028C43.4878 845.412 43.0536 839.516 43.2815 828.692C43.5104 817.826 44.159 811.268 46.7984 800.725C49.2889 790.775 51.5884 785.354 56.2789 776.233C60.4671 768.089 63.2493 763.673 68.9197 756.482C75.0665 748.687 79.0537 744.647 86.6958 738.311C95.1942 731.265 100.556 727.907 110.397 722.905C121.664 717.177 128.469 714.555 140.814 711.844C152.614 709.253 159.548 708.78 171.626 709.079C181.095 709.313 186.453 709.897 195.722 711.844C207.18 714.251 213.543 716.398 224.164 721.325C232.565 725.222 237.246 727.686 244.705 733.175C253.493 739.642 258.094 743.966 264.852 752.532C269.835 758.848 272.712 762.136 276.702 769.123C280.568 775.893 282.359 780.353 284.998 787.689C287.202 793.815 287.865 797.465 288.948 803.885C290.03 810.303 290.528 813.967 290.528 820.476C290.528 826.984 288.948 837.067 288.948 837.067M87.4858 920.022C87.4858 920.022 102.6 928.589 111.977 931.872C122.401 935.522 175.576 942.143 138.049 937.008M288.948 837.067L320.945 820.476L339.906 809.415C339.906 809.415 345.819 806.875 349.782 807.045C353.148 807.189 358.077 809.415 358.077 809.415C358.077 809.415 361.852 812.183 363.608 814.55C366.167 818.003 367.558 824.821 367.558 824.821C367.558 824.821 368.553 840.52 367.558 850.498C367.047 855.621 366.587 858.483 365.583 863.533C363.573 873.634 358.077 888.815 358.077 888.815C358.077 888.815 354.329 897.894 351.362 903.431C347.461 910.71 344.823 914.571 339.906 921.207C335.602 927.015 333.135 930.284 328.055 935.428C324.14 939.393 317.39 944.908 317.39 944.908L308.699 950.834M288.948 837.067C288.948 837.067 285.407 853.548 281.443 863.533C276.986 874.759 257.346 906.591 266.827 890.79M308.699 950.834C308.699 950.834 302.92 940.573 298.824 934.243C293.24 925.616 272.752 899.481 283.418 912.911" stroke="#D0D3DC" stroke-width="5"/>
<path d="M85.1157 1021.15C85.1157 1021.15 84.7374 1025.75 85.1157 1028.65C85.5505 1031.99 85.6723 1033.74 86.6958 1036.95C87.9409 1040.85 89.1345 1043.2 91.041 1046.82C92.7928 1050.16 96.5714 1054.72 96.5714 1054.72C96.5714 1054.72 94.5666 1059.75 94.9913 1063.02C95.4622 1066.65 96.241 1068.87 98.5465 1071.71C102.516 1076.6 105.777 1078.36 111.582 1080.8C118.586 1083.74 124.544 1084.46 132.124 1083.96C138.049 1083.56 140.818 1083.6 146.344 1082.77C154.245 1081.59 155.035 1081.98 161.75 1080.8C168.466 1079.61 175.971 1078.03 175.971 1078.03L190.587 1076.06C190.587 1076.06 200.131 1074.48 205.993 1074.48C208.616 1074.48 210.09 1074.32 212.708 1074.48C218.508 1074.81 228.114 1076.06 228.114 1076.06L238.78 1078.03L255.766 1080.8C255.766 1080.8 265.705 1082.38 271.567 1082.38C277.429 1082.38 280.773 1082.41 286.578 1081.59C291.803 1080.85 294.767 1080.12 299.614 1078.03C303.357 1076.42 305.381 1075.26 308.699 1072.9C312.433 1070.23 314.549 1068.6 317.39 1065C318.768 1063.25 320.55 1060.26 320.55 1060.26C320.55 1060.26 321.697 1054.29 320.55 1050.77C319.355 1047.11 314.625 1042.87 314.625 1042.87L317.39 1037.34C317.39 1037.34 319.753 1028.57 320.55 1017.99C321.048 1011.37 321.735 1008.43 321.735 1001.79C321.735 994.602 321.735 996.577 320.55 988.677C319.365 980.776 318.18 977.695 318.18 977.695C318.18 977.695 315.977 969.296 314.625 965.054C312.797 959.322 308.699 950.834 308.699 950.834M85.1157 1021.15C85.1157 1021.15 77.8445 1019.92 73.265 1018.78C65.6913 1016.89 61.5018 1015.48 54.3038 1012.46C47.9416 1009.79 43.948 1008.62 38.1078 1004.95C32.152 1001.21 28.2672 999.002 23.887 993.496C21.2184 990.142 19.7883 988.175 18.7517 984.016C17.8562 980.423 17.6481 978.069 18.7517 974.535C19.8742 970.94 23.0473 967.557 25.8621 965.054C32.9725 958.734 34.8344 958.392 41.663 953.599C49.6933 947.962 54.3959 945.714 62.2043 939.773C72.1754 932.187 87.4858 920.022 87.4858 920.022M85.1157 1021.15C85.1157 1021.15 86.4257 1013.66 87.4858 1008.9C88.6992 1003.46 91.041 995.076 91.041 995.076C92.2752 991.837 92.9671 990.02 94.2012 986.781C95.4354 983.541 106.052 967.82 98.5465 978.88M87.4858 920.022C87.4858 920.022 79.2251 913.627 74.45 908.961C67.9516 902.611 64.3484 898.831 59.4391 891.185C55.7859 885.496 54.1132 882.031 51.5386 875.779C48.4723 868.333 47.1943 863.924 45.6133 856.028C43.4878 845.412 43.0536 839.516 43.2815 828.692C43.5104 817.826 44.159 811.268 46.7984 800.725C49.2889 790.775 51.5884 785.354 56.2789 776.233C60.4671 768.089 63.2493 763.673 68.9197 756.482C75.0665 748.687 79.0537 744.647 86.6958 738.311C95.1942 731.265 100.556 727.907 110.397 722.905C121.664 717.177 128.469 714.555 140.814 711.844C152.614 709.253 159.548 708.78 171.626 709.079C181.095 709.313 186.453 709.897 195.722 711.844C207.18 714.251 213.543 716.398 224.164 721.325C232.565 725.222 237.246 727.686 244.705 733.175C253.493 739.642 258.094 743.966 264.852 752.532C269.835 758.848 272.712 762.136 276.702 769.123C280.568 775.893 282.359 780.353 284.998 787.689C287.202 793.815 287.865 797.465 288.948 803.885C290.03 810.303 290.528 813.967 290.528 820.476C290.528 826.984 288.948 837.067 288.948 837.067M87.4858 920.022C87.4858 920.022 102.6 928.589 111.977 931.872C122.401 935.522 175.576 942.143 138.049 937.008M288.948 837.067L320.945 820.476L339.906 809.415C339.906 809.415 345.819 806.875 349.782 807.045C353.148 807.189 358.077 809.415 358.077 809.415C358.077 809.415 361.852 812.183 363.608 814.55C366.167 818.003 367.558 824.821 367.558 824.821C367.558 824.821 368.553 840.52 367.558 850.498C367.047 855.621 366.587 858.483 365.583 863.533C363.573 873.634 358.077 888.815 358.077 888.815C358.077 888.815 354.329 897.894 351.362 903.431C347.461 910.71 344.823 914.571 339.906 921.207C335.602 927.015 333.135 930.284 328.055 935.428C324.14 939.393 317.39 944.908 317.39 944.908L308.699 950.834M288.948 837.067C288.948 837.067 285.407 853.548 281.443 863.533C276.986 874.759 257.346 906.591 266.827 890.79M308.699 950.834C308.699 950.834 302.92 940.573 298.824 934.243C293.24 925.616 272.752 899.481 283.418 912.911" stroke="black" stroke-opacity="0.2" stroke-width="5"/>
<path d="M193.351 1070.61C186.216 1071.4 174.785 1072.9 174.785 1072.9C174.785 1072.9 161.205 1070.63 155.272 1064.56C151.166 1060.36 149.347 1058.19 146.565 1053.42C143.591 1048.32 142.315 1045.27 140.52 1039.41C138.726 1033.54 138.61 1030.38 138.395 1024.46C138.179 1018.54 139.456 1010.19 139.456 1010.19C139.456 1010.19 140.888 1002.98 142.591 998.617C145.422 991.363 147.996 987.566 153.041 981.634C157.583 976.292 160.591 973.55 166.44 969.682C173.489 965.021 178.137 963.294 186.285 961.053C196.12 958.349 202.101 957.891 212.282 958.525C220.499 959.036 226.263 959.583 234.038 962.289C241.814 964.995 246.625 966.438 253.394 970.979C259.023 974.754 263.028 977.841 267.615 982.83C272.863 988.535 274.651 992.998 277.491 1000.21C279.897 1006.32 280.488 1012.23 281.046 1018.78C281.678 1026.18 280.829 1029.39 279.466 1035.37C278.103 1041.35 276.664 1043.93 273.341 1050.38C270.018 1056.82 269.09 1057.91 265.454 1061.73C262.116 1065.24 259.259 1067.19 255.069 1069.62C250.975 1072 243.764 1073.99 243.764 1073.99C243.764 1073.99 234.716 1072.22 227.718 1071.32C220.72 1070.41 217.293 1069.93 210.732 1069.62C203.952 1069.3 200.098 1069.87 193.351 1070.61Z" fill="#E6E7E9"/>
<path d="M102.11 917.658C108.565 921.781 112.688 924.089 119.875 926.737C127.38 929.502 131.586 929.993 138.836 932.267C147.922 933.459 151.872 933.847 158.982 934.242C170.815 934.9 172.413 934.242 182.299 933.459C191.374 932.74 196.678 931.357 203.62 928.712C211.915 925.552 216.102 923.261 222.581 920.021C229.06 916.782 237.603 911.338 237.603 911.338C237.603 911.338 245.503 905.807 250.639 901.462C255.774 897.117 258.999 894.118 263.674 887.241C268.291 880.449 270.079 876.588 273.183 868.984C275.45 863.429 276.188 859.519 277.5 853.664L277.555 853.419C279.251 845.853 280.265 841.33 280.265 833.123C280.265 826.952 279.657 823.811 278.685 817.717C277.848 812.464 277.383 809.666 275.525 804.681C273.331 798.795 272.76 796.781 268.81 790.065C264.859 783.35 262.884 779.795 257.749 773.079C252.658 767.526 249.849 763.994 244.713 758.858C244.713 758.858 234.838 750.563 229.307 747.798L229.306 747.797C223.777 745.032 221.406 743.847 215.086 741.872C215.086 741.872 208.084 740.731 204.026 740.687C199.663 740.64 196.806 740.824 192.57 741.872C186.591 743.352 183.121 744.445 177.954 747.798C172.737 751.183 169.697 753.526 166.498 758.858C162.976 764.73 162.129 769.04 161.363 775.844C160.742 781.363 161.125 784.608 162.153 790.065C163.066 794.909 164.491 797.414 166.498 801.916C168.86 807.212 170.417 810.11 173.609 814.952C176.394 819.177 181.509 825.222 181.509 825.222C181.509 825.222 189.533 830.713 192.57 835.888C194.645 839.423 195.52 841.71 196.125 845.764C196.581 848.815 196.871 850.994 196.52 854.059C196.197 856.885 195.863 858.254 194.545 860.775C193.029 863.675 191.982 865.071 189.41 867.095C186.852 869.107 184.649 870.187 181.509 871.045C178.533 871.859 176.663 871.876 173.609 871.44C168.872 870.764 165.883 869.697 162.153 866.7C158.418 863.698 156.623 860.775 155.043 856.429C153.463 852.084 153.068 849.714 152.673 844.579C152.278 839.443 153.068 831.543 153.068 831.543L149.117 817.717C149.117 817.717 146.747 811.792 143.982 806.656C141.217 801.521 139.957 800.397 136.872 796.386C133.786 792.375 129.699 790.181 124.626 787.695C120.245 785.549 117.598 784.874 112.775 784.14C108.505 783.49 105.184 783.03 100.925 783.745C96.4012 784.504 94.0072 785.333 89.8639 787.3C83.6411 790.255 80.361 792.946 75.643 797.966C70.44 803.501 68.6676 807.78 66.1624 814.952C63.7371 821.895 62.4392 825.707 61.8448 833.037C61.2962 839.803 61.3112 846.022 61.8448 852.788C62.2735 858.226 62.7897 861.739 63.8199 867.095C65.1132 873.819 66.6172 875.421 69.3226 881.711L69.383 881.851C71.2968 886.301 71.7228 887.292 75.643 892.771C79.604 898.308 82.625 900.957 87.0987 906.202C87.0987 906.202 95.8949 913.689 102.11 917.658Z" fill="white"/>
<path d="M154.636 854.053C154.834 855.009 154.968 855.562 155.426 856.423C155.991 857.487 156.781 858.144 157.796 858.793C158.868 859.479 159.69 859.466 160.956 859.584C162.977 859.771 166.092 858.793 166.092 858.793L168.857 861.164C170.245 861.935 170.234 862.367 171.622 863.139C173.01 863.91 174.342 864.375 175.967 864.719C177.929 865.134 179.14 865.134 181.103 864.719C182.728 864.375 184.113 863.733 185.448 862.744C186.861 861.697 187.75 860.268 188.213 859.189C188.676 858.109 189.003 857.608 189.398 856.028C189.793 854.448 189.739 853.65 189.793 852.078C189.841 850.682 189.398 848.523 189.398 848.523C189.398 848.523 190.978 846.943 191.768 845.758C192.698 844.362 192.868 844.039 193.348 842.598C193.743 841.412 193.73 840.174 193.348 838.647C192.967 837.121 192.495 836.414 191.373 835.487C190.575 834.828 189.199 834.22 188.213 833.907C187.173 833.577 185.053 833.512 185.053 833.512C185.053 833.512 184.062 832.005 183.078 831.142C181.918 830.124 180.816 829.217 179.522 828.377C178.191 827.511 177.458 827.343 175.967 826.797C174.49 826.255 173.588 826.082 172.017 826.006C170.468 825.932 169.588 826.103 168.067 826.402C166.486 826.712 165.554 826.86 164.116 827.587C162.547 828.38 161.745 829.05 160.561 830.352C159.119 831.937 158.575 833.095 157.796 835.092C157.002 837.127 156.86 838.4 156.619 840.551L156.611 840.622C156.337 843.075 156.611 846.943 156.611 846.943C156.611 846.943 155.399 848.52 155.031 849.708C154.529 851.329 154.291 852.392 154.636 854.053Z" fill="black" stroke="#504B4F"/>
<path d="M159.49 848.553C158.802 850.921 158.066 854.517 158.066 854.517C158.066 854.517 163.35 855.819 166.969 855.423C170.093 855.082 172.526 854.861 175.431 853.667C178.425 852.436 179.475 851.892 182.051 849.937C184.089 848.389 185.008 847.407 186.675 845.469C188.361 843.509 189.679 839.463 189.679 839.463C189.679 839.463 186.863 838.32 184.078 836.843C181.98 835.731 181.145 833.855 179.129 832.327C177.728 831.266 176.358 829.92 173.203 829.167C171.166 828.681 168.437 828.955 166.297 829.802C164.158 830.648 162.475 831.902 161.353 834.302C160.23 836.703 159.836 838.626 159.773 841.808C159.709 844.989 160.248 845.945 159.49 848.553Z" fill="#FFF176"/>
<ellipse cx="214.514" cy="813.06" rx="12.6408" ry="16.9779" transform="rotate(-19.6141 214.514 813.06)" fill="black" stroke="#504B4F"/>
<ellipse cx="122.131" cy="853.109" rx="12.6408" ry="16.9779" transform="rotate(-19.6141 122.131 853.109)" fill="black" stroke="#504B4F"/>
<circle cx="122.681" cy="845.283" r="3.55521" fill="white" stroke="#504B4F"/>
<circle cx="215.115" cy="804.991" r="3.55521" fill="white" stroke="#504B4F"/>
<ellipse cx="240.328" cy="833.31" rx="19.4325" ry="8.72917" transform="rotate(-24.4697 240.328 833.31)" fill="#FACFE3"/>
<ellipse cx="120.155" cy="884.049" rx="19.4325" ry="8.72917" transform="rotate(-19.0374 120.155 884.049)" fill="#FACFE3"/>
<path d="M343.434 307.253L332 853" stroke="black" stroke-width="3" stroke-linecap="round"/>
<path d="M230.923 221.466C260.548 284.256 334.173 311.636 395.307 282.792C456.442 253.948 482.125 179.715 452.5 116.925C422.875 54.1342 349.251 26.7546 288.116 55.5983C226.981 84.442 201.299 158.675 230.923 221.466Z" fill="#F962FC"/>
<path d="M230.923 221.466C260.548 284.256 334.173 311.636 395.307 282.792C456.442 253.948 482.125 179.715 452.5 116.925C422.875 54.1342 349.251 26.7546 288.116 55.5983C226.981 84.442 201.299 158.675 230.923 221.466Z" stroke="#F962FC" stroke-width="5"/>
<path d="M230.923 221.466C260.548 284.256 334.173 311.636 395.307 282.792C456.442 253.948 482.125 179.715 452.5 116.925C422.875 54.1342 349.251 26.7546 288.116 55.5983C226.981 84.442 201.299 158.675 230.923 221.466Z" stroke="black" stroke-opacity="0.2" stroke-width="5"/>
<path d="M252.012 140.396C243.122 186.581 252.162 210.045 301.225 246.255" stroke="white" stroke-opacity="0.2" stroke-width="15" stroke-linecap="round"/>
<path d="M344.182 301.244C344.121 299.058 345.603 297.793 344.301 296.037C342.998 294.281 340.393 293.76 338.762 295.216C336.727 297.033 341.744 301.535 341.744 301.535C341.744 301.535 337.71 310.149 333.881 314.538C331.416 317.364 328.934 317.452 327.755 321.013C326.76 324.018 327.029 326.521 328.961 329.028C332.847 334.072 337.35 322.434 343.707 322.071C347.824 321.836 350.311 325.717 354.081 324.044C357.179 322.67 358.407 320.447 359.446 317.221C362.123 308.911 344.423 309.971 344.182 301.244Z" fill="#1675C3"/>
<path d="M342.956 319.342C337.431 319.365 332.613 332.065 330.133 326.608C329.387 324.964 328.707 322.2 329.694 320.751C331.363 318.3 336.279 315.982 341.936 311.597C345.372 308.933 347.659 311.512 351.979 312.867C354.556 313.675 357.245 313.345 357.809 316.125C358.365 318.864 355.573 321.465 353.269 322.558C349.615 324.291 347.066 319.325 342.956 319.342Z" fill="#F962FC"/>
<path d="M342.956 319.342C337.431 319.365 332.613 332.065 330.133 326.608C329.387 324.964 328.707 322.2 329.694 320.751C331.363 318.3 336.279 315.982 341.936 311.597C345.372 308.933 347.659 311.512 351.979 312.867C354.556 313.675 357.245 313.345 357.809 316.125C358.365 318.864 355.573 321.465 353.269 322.558C349.615 324.291 347.066 319.325 342.956 319.342Z" stroke="#F962FC"/>
<path d="M342.956 319.342C337.431 319.365 332.613 332.065 330.133 326.608C329.387 324.964 328.707 322.2 329.694 320.751C331.363 318.3 336.279 315.982 341.936 311.597C345.372 308.933 347.659 311.512 351.979 312.867C354.556 313.675 357.245 313.345 357.809 316.125C358.365 318.864 355.573 321.465 353.269 322.558C349.615 324.291 347.066 319.325 342.956 319.342Z" stroke="black" stroke-opacity="0.2"/>
<path d="M245.5 391C245.5 391 325.581 626.723 331.5 806.5C332.547 838.31 333 887 333 887" stroke="black" stroke-width="3" stroke-linecap="round"/>
<path d="M308.5 260.106C308.5 329.534 253.597 385.711 186 385.711C118.403 385.711 63.5 329.534 63.5 260.106C63.5 190.677 118.403 134.5 186 134.5C253.597 134.5 308.5 190.677 308.5 260.106Z" fill="#EA3871"/>
<path d="M308.5 260.106C308.5 329.534 253.597 385.711 186 385.711C118.403 385.711 63.5 329.534 63.5 260.106C63.5 190.677 118.403 134.5 186 134.5C253.597 134.5 308.5 190.677 308.5 260.106Z" stroke="#EA3871" stroke-width="5"/>
<path d="M308.5 260.106C308.5 329.534 253.597 385.711 186 385.711C118.403 385.711 63.5 329.534 63.5 260.106C63.5 190.677 118.403 134.5 186 134.5C253.597 134.5 308.5 190.677 308.5 260.106Z" stroke="black" stroke-opacity="0.2" stroke-width="5"/>
<path d="M103.94 228.273C93.2099 274.065 101.304 297.872 148.881 336.015" stroke="white" stroke-opacity="0.2" stroke-width="15" stroke-linecap="round"/>
<path d="M240.111 380.584C239.233 378.582 237.353 378.069 237.782 375.925C238.211 373.782 240.344 372.199 242.44 372.82C245.057 373.595 242.44 379.807 242.44 379.807C242.44 379.807 249.764 385.876 255.099 388.212C258.535 389.715 260.818 388.736 263.403 391.453C265.585 393.747 266.409 396.125 265.732 399.217C264.37 405.437 255.332 396.833 249.428 399.217C245.604 400.762 245.01 405.333 240.887 405.429C237.498 405.507 235.44 404.021 233.123 401.547C227.157 395.174 243.616 388.579 240.111 380.584Z" fill="#BB2D5A"/>
<path d="M248.944 396.428C253.95 394.092 263.727 403.521 263.641 397.528C263.615 395.723 263.05 392.933 261.539 392.043C258.983 390.538 253.549 390.54 246.561 388.988C242.317 388.045 241.349 391.353 238.02 394.422C236.034 396.253 233.462 397.102 234.138 399.857C234.803 402.57 238.439 403.732 240.988 403.737C245.032 403.745 245.22 398.167 248.944 396.428Z" fill="#EA3871"/>
<path d="M248.944 396.428C253.95 394.092 263.727 403.521 263.641 397.528C263.615 395.723 263.05 392.933 261.539 392.043C258.983 390.538 253.549 390.54 246.561 388.988C242.317 388.045 241.349 391.353 238.02 394.422C236.034 396.253 233.462 397.102 234.138 399.857C234.803 402.57 238.439 403.732 240.988 403.737C245.032 403.745 245.22 398.167 248.944 396.428Z" stroke="#EA3871"/>
<path d="M248.944 396.428C253.95 394.092 263.727 403.521 263.641 397.528C263.615 395.723 263.05 392.933 261.539 392.043C258.983 390.538 253.549 390.54 246.561 388.988C242.317 388.045 241.349 391.353 238.02 394.422C236.034 396.253 233.462 397.102 234.138 399.857C234.803 402.57 238.439 403.732 240.988 403.737C245.032 403.745 245.22 398.167 248.944 396.428Z" stroke="black" stroke-opacity="0.2"/>
<path d="M222.051 566.633C222.051 566.633 332.462 717.215 332.462 841.597C332.462 862.771 333.004 897.909 333.004 897.909" stroke="black" stroke-width="3" stroke-linecap="round"/>
<path d="M256.743 428.916C269.427 495.848 227.881 559.727 164.228 571.79C100.575 583.853 38.5371 539.605 25.8524 472.674C13.1678 405.743 54.7136 341.864 118.367 329.8C182.02 317.737 244.058 361.985 256.743 428.916Z" fill="#3DD3B6"/>
<path d="M256.743 428.916C269.427 495.848 227.881 559.727 164.228 571.79C100.575 583.853 38.5371 539.605 25.8524 472.674C13.1678 405.743 54.7136 341.864 118.367 329.8C182.02 317.737 244.058 361.985 256.743 428.916Z" stroke="#3DD3B6" stroke-width="5"/>
<path d="M256.743 428.916C269.427 495.848 227.881 559.727 164.228 571.79C100.575 583.853 38.5371 539.605 25.8524 472.674C13.1678 405.743 54.7136 341.864 118.367 329.8C182.02 317.737 244.058 361.985 256.743 428.916Z" stroke="black" stroke-opacity="0.2" stroke-width="5"/>
<path d="M58.084 434.789C56.3264 480.835 68.3091 502.33 120.15 530.583" stroke="white" stroke-opacity="0.2" stroke-width="15" stroke-linecap="round"/>
<path d="M214.339 557.223C213.145 555.45 211.278 555.293 211.291 553.15C211.304 551.007 213.027 549.101 215.118 549.324C217.727 549.604 216.394 556.058 216.394 556.058C216.394 556.058 224.41 560.597 229.869 561.894C233.384 562.729 235.358 561.378 238.293 563.534C240.77 565.354 241.982 567.498 241.908 570.599C241.759 576.837 231.663 570.161 226.529 573.514C223.205 575.686 223.48 580.197 219.608 581.026C216.426 581.708 214.213 580.644 211.576 578.673C204.785 573.598 219.105 564.301 214.339 557.223Z" fill="#31A992"/>
<path d="M225.564 570.915C229.859 567.769 240.803 575.107 239.627 569.348C239.273 567.613 238.23 565.025 236.643 564.438C233.958 563.445 228.832 564.418 221.958 564.171C217.782 564.021 217.474 567.382 214.894 570.935C213.355 573.054 211.084 574.332 212.225 576.866C213.348 579.362 216.989 579.831 219.395 579.381C223.211 578.665 222.369 573.256 225.564 570.915Z" fill="#3DD3B6"/>
<path d="M225.564 570.915C229.859 567.769 240.803 575.107 239.627 569.348C239.273 567.613 238.23 565.025 236.643 564.438C233.958 563.445 228.832 564.418 221.958 564.171C217.782 564.021 217.474 567.382 214.894 570.935C213.355 573.054 211.084 574.332 212.225 576.866C213.348 579.362 216.989 579.831 219.395 579.381C223.211 578.665 222.369 573.256 225.564 570.915Z" stroke="#3DD3B6"/>
<path d="M225.564 570.915C229.859 567.769 240.803 575.107 239.627 569.348C239.273 567.613 238.23 565.025 236.643 564.438C233.958 563.445 228.832 564.418 221.958 564.171C217.782 564.021 217.474 567.382 214.894 570.935C213.355 573.054 211.084 574.332 212.225 576.866C213.348 579.362 216.989 579.831 219.395 579.381C223.211 578.665 222.369 573.256 225.564 570.915Z" stroke="black" stroke-opacity="0.2"/>
<path d="M425.5 391.5C425.5 391.5 338.385 635.723 332.466 815.5C331.419 847.31 332.466 897 332.466 897" stroke="black" stroke-width="3" stroke-linecap="round"/>
<path d="M362.5 260.106C362.5 329.534 417.403 385.711 485 385.711C552.597 385.711 607.5 329.534 607.5 260.106C607.5 190.677 552.597 134.5 485 134.5C417.403 134.5 362.5 190.677 362.5 260.106Z" fill="#FBB748"/>
<path d="M362.5 260.106C362.5 329.534 417.403 385.711 485 385.711C552.597 385.711 607.5 329.534 607.5 260.106C607.5 190.677 552.597 134.5 485 134.5C417.403 134.5 362.5 190.677 362.5 260.106Z" stroke="#FBB748" stroke-width="5"/>
<path d="M362.5 260.106C362.5 329.534 417.403 385.711 485 385.711C552.597 385.711 607.5 329.534 607.5 260.106C607.5 190.677 552.597 134.5 485 134.5C417.403 134.5 362.5 190.677 362.5 260.106Z" stroke="black" stroke-opacity="0.2" stroke-width="5"/>
<path d="M416.164 195.785C388.418 233.76 386.581 258.839 415.503 312.522" stroke="white" stroke-opacity="0.2" stroke-width="15" stroke-linecap="round"/>
<path d="M430.889 380.584C431.767 378.582 433.647 378.069 433.218 375.925C432.789 373.782 430.656 372.199 428.56 372.82C425.943 373.595 428.56 379.807 428.56 379.807C428.56 379.807 421.236 385.876 415.901 388.212C412.465 389.715 410.182 388.736 407.597 391.453C405.415 393.747 404.591 396.125 405.268 399.217C406.63 405.437 415.668 396.833 421.572 399.217C425.396 400.762 425.99 405.333 430.113 405.429C433.502 405.507 435.56 404.021 437.877 401.547C443.843 395.174 427.384 388.579 430.889 380.584Z" fill="#C9923A"/>
<path d="M422.058 396.428C417.052 394.092 407.275 403.521 407.361 397.528C407.387 395.723 407.952 392.933 409.462 392.043C412.018 390.538 417.453 390.54 424.44 388.988C428.685 388.045 429.652 391.353 432.981 394.422C434.967 396.253 437.54 397.102 436.864 399.857C436.198 402.57 432.563 403.732 430.013 403.737C425.969 403.745 425.782 398.167 422.058 396.428Z" fill="#FBB748"/>
<path d="M422.058 396.428C417.052 394.092 407.275 403.521 407.361 397.528C407.387 395.723 407.952 392.933 409.462 392.043C412.018 390.538 417.453 390.54 424.44 388.988C428.685 388.045 429.652 391.353 432.981 394.422C434.967 396.253 437.54 397.102 436.864 399.857C436.198 402.57 432.563 403.732 430.013 403.737C425.969 403.745 425.782 398.167 422.058 396.428Z" stroke="#FBB748"/>
<path d="M422.058 396.428C417.052 394.092 407.275 403.521 407.361 397.528C407.387 395.723 407.952 392.933 409.462 392.043C412.018 390.538 417.453 390.54 424.44 388.988C428.685 388.045 429.652 391.353 432.981 394.422C434.967 396.253 437.54 397.102 436.864 399.857C436.198 402.57 432.563 403.732 430.013 403.737C425.969 403.745 425.782 398.167 422.058 396.428Z" stroke="black" stroke-opacity="0.2"/>
<path d="M444.277 564.633C444.277 564.633 333.866 715.215 333.866 839.597C333.866 860.771 333.866 896 333.866 896" stroke="black" stroke-width="3" stroke-linecap="round"/>
<path d="M409.585 426.916C396.9 493.848 438.446 557.727 502.1 569.79C565.753 581.853 627.791 537.605 640.475 470.674C653.16 403.743 611.614 339.864 547.961 327.8C484.308 315.737 422.27 359.985 409.585 426.916Z" fill="#B558E0"/>
<path d="M409.585 426.916C396.9 493.848 438.446 557.727 502.1 569.79C565.753 581.853 627.791 537.605 640.475 470.674C653.16 403.743 611.614 339.864 547.961 327.8C484.308 315.737 422.27 359.985 409.585 426.916Z" stroke="#B558E0" stroke-width="5"/>
<path d="M409.585 426.916C396.9 493.848 438.446 557.727 502.1 569.79C565.753 581.853 627.791 537.605 640.475 470.674C653.16 403.743 611.614 339.864 547.961 327.8C484.308 315.737 422.27 359.985 409.585 426.916Z" stroke="black" stroke-opacity="0.2" stroke-width="5"/>
<path d="M462.325 390.137C432.441 425.212 428.546 449.511 451.771 503.791" stroke="white" stroke-opacity="0.2" stroke-width="15" stroke-linecap="round"/>
<path d="M451.989 555.223C453.183 553.45 455.05 553.293 455.037 551.15C455.024 549.007 453.301 547.101 451.21 547.324C448.601 547.604 449.934 554.058 449.934 554.058C449.934 554.058 441.918 558.597 436.459 559.894C432.944 560.729 430.969 559.378 428.035 561.534C425.558 563.354 424.346 565.498 424.42 568.599C424.569 574.837 434.665 568.161 439.798 571.514C443.123 573.686 442.848 578.197 446.719 579.026C449.902 579.708 452.114 578.644 454.751 576.673C461.543 571.598 447.223 562.301 451.989 555.223Z" fill="#9146B3"/>
<path d="M440.764 568.915C436.469 565.769 425.525 573.107 426.701 567.348C427.055 565.613 428.098 563.025 429.685 562.438C432.37 561.445 437.496 562.418 444.37 562.171C448.545 562.021 448.854 565.382 451.433 568.935C452.972 571.054 455.244 572.332 454.103 574.866C452.98 577.362 449.338 577.831 446.933 577.381C443.117 576.665 443.959 571.256 440.764 568.915Z" fill="#B558E0"/>
<path d="M440.764 568.915C436.469 565.769 425.525 573.107 426.701 567.348C427.055 565.613 428.098 563.025 429.685 562.438C432.37 561.445 437.496 562.418 444.37 562.171C448.545 562.021 448.854 565.382 451.433 568.935C452.972 571.054 455.244 572.332 454.103 574.866C452.98 577.362 449.338 577.831 446.933 577.381C443.117 576.665 443.959 571.256 440.764 568.915Z" stroke="#B558E0"/>
<path d="M440.764 568.915C436.469 565.769 425.525 573.107 426.701 567.348C427.055 565.613 428.098 563.025 429.685 562.438C432.37 561.445 437.496 562.418 444.37 562.171C448.545 562.021 448.854 565.382 451.433 568.935C452.972 571.054 455.244 572.332 454.103 574.866C452.98 577.362 449.338 577.831 446.933 577.381C443.117 576.665 443.959 571.256 440.764 568.915Z" stroke="black" stroke-opacity="0.2"/>
<path d="M336.434 517.253L333 897" stroke="black" stroke-width="3" stroke-linecap="round"/>
<path d="M211.483 417.17C244.731 487.639 327.365 518.377 395.992 485.999C464.619 453.62 493.439 370.296 460.191 299.828C426.944 229.359 344.309 198.62 275.682 230.999C207.055 263.377 178.235 346.701 211.483 417.17Z" fill="#1C92F4"/>
<path d="M211.483 417.17C244.731 487.639 327.365 518.377 395.992 485.999C464.619 453.62 493.439 370.296 460.191 299.828C426.944 229.359 344.309 198.62 275.682 230.999C207.055 263.377 178.235 346.701 211.483 417.17Z" stroke="#1C92F4" stroke-width="5"/>
<path d="M211.483 417.17C244.731 487.639 327.365 518.377 395.992 485.999C464.619 453.62 493.439 370.296 460.191 299.828C426.944 229.359 344.309 198.62 275.682 230.999C207.055 263.377 178.235 346.701 211.483 417.17Z" stroke="black" stroke-opacity="0.2" stroke-width="5"/>
<path d="M235.373 326.244C225.416 377.97 235.541 404.25 290.492 444.805" stroke="white" stroke-opacity="0.2" stroke-width="15" stroke-linecap="round"/>
<path d="M338.603 506.393C338.536 503.945 340.196 502.528 338.737 500.561C337.278 498.594 334.361 498.01 332.534 499.641C330.254 501.677 335.873 506.719 335.873 506.719C335.873 506.719 331.355 516.366 327.067 521.282C324.306 524.447 321.526 524.546 320.205 528.534C319.091 531.899 319.393 534.703 321.556 537.511C325.909 543.16 330.952 530.126 338.072 529.719C342.683 529.456 345.469 533.802 349.691 531.929C353.161 530.389 354.536 527.901 355.7 524.287C358.697 514.98 338.874 516.167 338.603 506.393Z" fill="#1675C3"/>
<path d="M337.231 526.664C331.043 526.689 325.646 540.913 322.869 534.801C322.033 532.96 321.272 529.864 322.377 528.241C324.246 525.496 329.752 522.9 336.088 517.989C339.937 515.005 342.498 517.893 347.337 519.411C350.223 520.317 353.234 519.947 353.867 523.061C354.489 526.128 351.362 529.042 348.782 530.265C344.689 532.206 341.834 526.645 337.231 526.664Z" fill="#1C92F4"/>
<path d="M337.231 526.664C331.043 526.689 325.646 540.913 322.869 534.801C322.033 532.96 321.272 529.864 322.377 528.241C324.246 525.496 329.752 522.9 336.088 517.989C339.937 515.005 342.498 517.893 347.337 519.411C350.223 520.317 353.234 519.947 353.867 523.061C354.489 526.128 351.362 529.042 348.782 530.265C344.689 532.206 341.834 526.645 337.231 526.664Z" stroke="#1C92F4"/>
<path d="M337.231 526.664C331.043 526.689 325.646 540.913 322.869 534.801C322.033 532.96 321.272 529.864 322.377 528.241C324.246 525.496 329.752 522.9 336.088 517.989C339.937 515.005 342.498 517.893 347.337 519.411C350.223 520.317 353.234 519.947 353.867 523.061C354.489 526.128 351.362 529.042 348.782 530.265C344.689 532.206 341.834 526.645 337.231 526.664Z" stroke="black" stroke-opacity="0.2"/>
</svg>
